<svg width="36" height="36" viewBox="0 0 36 36" fill="none" xmlns="http://www.w3.org/2000/svg">
<path opacity="0.45" fill-rule="evenodd" clip-rule="evenodd" d="M32.3285 8.26523H9.19219C8.91094 8.26523 8.67188 8.06836 8.61914 7.79414L8.16914 5.5125C8.05312 4.92539 7.53633 4.5 6.93867 4.5H2.75508C2.0625 4.50352 1.5 5.0625 1.5 5.75859C1.5 6.45117 2.0625 7.01367 2.75508 7.01367H5.90508C5.90508 7.01367 5.90859 7.01367 5.90859 7.01719L9.22031 23.8184C9.33633 24.4055 9.85313 24.8309 10.4508 24.8309H27.1922C27.8777 24.8309 28.4578 24.293 28.4754 23.6109C28.493 22.9043 27.9234 22.3242 27.2203 22.3242H11.9625C11.6813 22.3242 11.4422 22.1273 11.3895 21.8531L11.0344 20.0531C10.9641 19.691 11.2383 19.3535 11.6074 19.3535H28.4156C28.6547 19.3535 28.8691 19.2094 28.957 18.9879L32.9508 9.19336C33.1301 8.74687 32.8066 8.26523 32.3285 8.26523ZM9.65625 28.6523C9.65625 29.3899 9.94923 30.0972 10.4707 30.6187C10.9923 31.1402 11.6996 31.4332 12.4371 31.4332C13.1746 31.4332 13.882 31.1402 14.4035 30.6187C14.925 30.0972 15.218 29.3899 15.218 28.6523C15.218 27.9148 14.925 27.2075 14.4035 26.686C13.882 26.1645 13.1746 25.8715 12.4371 25.8715C11.6996 25.8715 10.9923 26.1645 10.4707 26.686C9.94923 27.2075 9.65625 27.9148 9.65625 28.6523ZM22.9757 30.6187C22.4542 30.0972 22.1613 29.3899 22.1613 28.6523C22.1613 27.9148 22.4542 27.2075 22.9757 26.686C23.4973 26.1645 24.2046 25.8715 24.9421 25.8715C25.6796 25.8715 26.387 26.1645 26.9085 26.686C27.43 27.2075 27.723 27.9148 27.723 28.6523C27.723 29.3899 27.43 30.0972 26.9085 30.6187C26.387 31.1402 25.6796 31.4332 24.9421 31.4332C24.2046 31.4332 23.4973 31.1402 22.9757 30.6187Z" fill="white"/>
</svg>
