<svg width="24" height="24" viewBox="0 0 24 24" fill="none" xmlns="http://www.w3.org/2000/svg">
<path d="M16.8142 15.2101L21 19.3958L19.3956 21L15.21 16.8143C13.9374 17.757 12.3624 18.3144 10.6571 18.3144C6.42823 18.3144 3 14.8861 3 10.657C3 6.42825 6.42823 3 10.6571 3C14.8861 3 18.3143 6.42825 18.3143 10.6571C18.3143 12.3624 17.7569 13.9375 16.8142 15.2101ZM10.6571 16.0455C13.633 16.0455 16.0455 13.6331 16.0455 10.6571C16.0455 7.68116 13.633 5.26884 10.6571 5.26884C7.68114 5.26884 5.26883 7.68128 5.26883 10.657C5.26883 13.633 7.68125 16.0455 10.6571 16.0455Z" fill="#4A4A4A"/>
</svg>
