<svg width="24" height="24" viewBox="0 0 24 24" fill="none" xmlns="http://www.w3.org/2000/svg">
<path d="M10.5243 13.1042C11.3392 13.8852 12.6608 13.8852 13.4758 13.1042L19.9795 7.53807C19.9893 7.60234 20 7.66639 20 7.73338V14.6667V16.6666C20 17.4031 19.3771 18 18.609 18H5.39104C4.62295 18 4 17.4031 4 16.6666V13.3333V7.73338C4 7.66639 4.0107 7.60232 4.02056 7.53807L10.5243 13.1042ZM19.1953 6.12833L12.9038 11.4909C12.2101 12.1558 11.7809 12.1558 11.0868 11.4909L4.79854 6.13145C4.97905 6.04941 5.17846 6 5.39104 6H18.6089C18.8191 6.00002 19.0169 6.04805 19.1953 6.12833Z" fill="#4A4A4A"/>
</svg>
