<svg width="24" height="24" viewBox="0 0 24 24" fill="none" xmlns="http://www.w3.org/2000/svg">
<path d="M12 5C13.9017 5 14.1391 5.007 14.8857 5.042C15.6307 5.07641 16.1388 5.19366 16.585 5.3675C17.0522 5.5425 17.4757 5.81841 17.8252 6.17482C18.1812 6.52467 18.4567 6.94788 18.6325 7.415C18.8052 7.86066 18.923 8.36934 18.958 9.11425C18.9913 9.86091 19 10.0983 19 12C19 13.9017 18.993 14.1391 18.958 14.8857C18.9236 15.6307 18.8052 16.1388 18.6325 16.585C18.4572 17.0524 18.1816 17.4757 17.8252 17.8252C17.4752 18.181 17.052 18.4565 16.585 18.6325C16.1388 18.8052 15.6307 18.923 14.8857 18.958C14.1391 18.9913 13.9017 19 12 19C10.0983 19 9.86091 18.993 9.11425 18.958C8.36934 18.9236 7.86125 18.8052 7.415 18.6325C6.9477 18.457 6.52442 18.1815 6.17482 17.8252C5.81874 17.4754 5.54323 17.0522 5.3675 16.585C5.19425 16.1388 5.077 15.6307 5.042 14.8857C5.00875 14.1391 5 13.9017 5 12C5 10.0983 5.007 9.86091 5.042 9.11425C5.07641 8.36875 5.19366 7.86125 5.3675 7.415C5.54272 6.94742 5.81853 6.52405 6.17541 6.17482C6.52492 5.8187 6.94797 5.54317 7.415 5.3675C7.86125 5.19425 8.36934 5.077 9.11425 5.042C9.86091 5.00875 10.0983 5 12 5ZM12 8.4055C11.5241 8.39945 11.0516 8.48798 10.6102 8.66594C10.1687 8.8439 9.767 9.10775 9.42831 9.44219C9.08962 9.77663 8.82072 10.175 8.6372 10.6142C8.45368 11.0534 8.3592 11.5246 8.35923 12.0006C8.35927 12.4766 8.45383 12.9478 8.63742 13.387C8.82101 13.8261 9.08998 14.2244 9.42873 14.5588C9.76747 14.8932 10.1692 15.157 10.6107 15.3349C11.0522 15.5128 11.5246 15.6012 12.0006 15.5951C12.946 15.5829 13.8486 15.1988 14.5128 14.5259C15.1771 13.853 15.5495 12.9455 15.5494 12C15.5493 11.0545 15.1768 10.1471 14.5124 9.47428C13.8481 8.8015 12.9454 8.41751 12 8.4055ZM12 14.3333C11.6935 14.3335 11.3901 14.2732 11.1069 14.156C10.8237 14.0388 10.5664 13.867 10.3497 13.6503C10.133 13.4336 9.96117 13.1763 9.84396 12.8931C9.72676 12.6099 9.66651 12.3065 9.66666 12C9.66666 10.7108 10.7108 9.66666 12 9.66666C13.2892 9.66666 14.3333 10.7108 14.3333 12C14.3333 13.2892 13.2892 14.3333 12 14.3333ZM16.5768 8.26434C16.5768 8.04156 16.4883 7.8279 16.3308 7.67037C16.1733 7.51284 15.9596 7.42434 15.7368 7.42434C15.5141 7.42434 15.3004 7.51284 15.1429 7.67037C14.9853 7.8279 14.8968 8.04156 14.8968 8.26434C14.9082 8.47948 15.0016 8.68207 15.1579 8.83036C15.3142 8.97864 15.5214 9.0613 15.7368 9.0613C15.9523 9.0613 16.1595 8.97864 16.3158 8.83036C16.4721 8.68207 16.5655 8.47948 16.5768 8.26434Z" fill="#4A4A4A"/>
</svg>
