<svg width="144" height="13" viewBox="0 0 144 13" fill="none" xmlns="http://www.w3.org/2000/svg">
<path id="Vector 30" d="M2.01232 1.99902C46.2877 1.99902 90.5631 1.99902 134.838 1.99902C137.159 1.99902 139.479 1.99902 141.799 1.99902C143.039 1.99902 138.118 2.83448 137.568 2.89175C130.153 3.66333 122.595 3.76771 115.13 4.04825C96.8539 4.7351 78.6854 5.7589 60.482 7.11193C43.7072 8.35878 26.7363 9.32949 10.0376 11.0481C7.54096 11.305 5.1319 11.4944 2.61285 11.4944C0.0831271 11.4944 2.47171 11.5046 3.81391 11.4944C20.8494 11.3652 38.0048 10.2108 55.0227 9.58723C72.6406 8.9417 90.2071 7.74987 107.815 7.03078C112.678 6.83214 117.845 6.83105 122.664 6.30036" stroke="#005834" stroke-width="3" stroke-linecap="round" stroke-linejoin="round"/>
</svg>
