<svg width="119" height="9" viewBox="0 0 119 9" fill="none" xmlns="http://www.w3.org/2000/svg">
<path id="Vector 31" d="M20.9291 2.39917C2.52217 2.39917 57.743 2.39917 76.15 2.39917C78.1453 2.39917 72.1594 2.39917 70.1641 2.39917C63.6425 2.39917 57.2195 3.19753 50.7292 3.79848C36.6977 5.09769 22.3976 5.18735 8.439 6.95988C6.46629 7.21038 0.610156 7.38032 2.47898 6.70075C3.80916 6.21705 5.94262 6.51243 7.29882 6.38979C11.8805 5.97549 16.4043 5.37147 21.0069 5.19779C32.3375 4.77022 43.6404 4.73135 54.979 4.73135C66.1735 4.73135 77.3679 4.73135 88.5624 4.73135C94.9359 4.73135 101.529 5.23514 107.868 4.49813C110.46 4.19671 113.069 4.46813 115.616 3.90213C116.429 3.72136 117.684 3.33204 116.082 3.33204" stroke="#005834" stroke-width="3" stroke-linecap="round" stroke-linejoin="round"/>
</svg>
