<svg width="24" height="24" viewBox="0 0 24 24" fill="none" xmlns="http://www.w3.org/2000/svg">
<path d="M12.0001 10.5861L9.87906 8.46406C9.69128 8.27641 9.43666 8.17105 9.1712 8.17115C8.90574 8.17124 8.6512 8.27678 8.46356 8.46456C8.27592 8.65233 8.17055 8.90695 8.17065 9.17241C8.17074 9.43787 8.27628 9.69241 8.46406 9.88006L10.5861 12.0001L8.46406 14.1211C8.27641 14.3087 8.171 14.5632 8.171 14.8286C8.171 15.0939 8.27641 15.3484 8.46406 15.5361C8.6517 15.7237 8.90619 15.8291 9.17156 15.8291C9.43692 15.8291 9.69141 15.7237 9.87906 15.5361L12.0001 13.4141L14.1211 15.5361C14.3087 15.7237 14.5632 15.8291 14.8286 15.8291C15.0939 15.8291 15.3484 15.7237 15.5361 15.5361C15.7237 15.3484 15.8291 15.0939 15.8291 14.8286C15.8291 14.5632 15.7237 14.3087 15.5361 14.1211L13.4141 12.0001L15.5361 9.87906C15.629 9.78615 15.7027 9.67584 15.753 9.55445C15.8032 9.43306 15.8291 9.30295 15.8291 9.17156C15.8291 9.04016 15.8032 8.91005 15.753 8.78866C15.7027 8.66727 15.629 8.55697 15.5361 8.46406C15.4431 8.37115 15.3328 8.29744 15.2115 8.24716C15.0901 8.19688 14.96 8.171 14.8286 8.171C14.6972 8.171 14.5671 8.19688 14.4457 8.24716C14.3243 8.29744 14.214 8.37115 14.1211 8.46406L12.0001 10.5861ZM5.63606 18.3641C3.94822 16.6762 3 14.387 3 12.0001C3 9.61309 3.94822 7.32389 5.63606 5.63606C7.32389 3.94822 9.61309 3 12.0001 3C14.387 3 16.6762 3.94822 18.3641 5.63606C20.0519 7.32389 21.0001 9.61309 21.0001 12.0001C21.0001 14.387 20.0519 16.6762 18.3641 18.3641C16.6762 20.0519 14.387 21.0001 12.0001 21.0001C9.61309 21.0001 7.32389 20.0519 5.63606 18.3641Z" fill="#4A4A4A"/>
</svg>
