<svg width="24" height="24" viewBox="0 0 24 24" fill="none" xmlns="http://www.w3.org/2000/svg">
<path d="M7.78747 11.0583C8.88367 13.2556 10.7315 15.0448 12.9239 16.2063L14.6465 14.4798C14.8658 14.2601 15.179 14.1659 15.4295 14.3229C16.2752 14.6368 17.2148 14.7937 18.217 14.7937C18.6868 14.7937 19 15.1076 19 15.5785V18.2152C19 18.6861 18.6868 19 18.217 19C10.8881 19 5 13.0987 5 5.78475C5 5.3139 5.3132 5 5.783 5H8.50783C8.97763 5 9.29083 5.3139 9.29083 5.78475C9.29083 6.72646 9.44743 7.66816 9.76063 8.57848C9.82327 8.79821 9.76063 9.11211 9.60403 9.36323L7.78747 11.0583Z" fill="#4A4A4A"/>
</svg>
