<svg width="24" height="24" viewBox="0 0 24 24" fill="none" xmlns="http://www.w3.org/2000/svg">
<circle cx="12" cy="12" r="12" fill="white" fill-opacity="0.6"/>
<path d="M11.8625 12.3748C13.8831 12.3748 15.5272 10.721 15.5271 8.68739C15.5271 6.65392 13.8831 5 11.8625 5C9.84202 5 8.19804 6.6545 8.19804 8.68739C8.19803 10.7204 9.84201 12.3748 11.8625 12.3748ZM13.3727 12.7298H10.6269C8.07535 12.7298 6 14.8167 6 17.3825V17.6587C6 19 8.04213 19 10.6269 19H13.3727C15.8558 19 18 19 18 17.6587V17.3825C18 14.8172 15.9243 12.7298 13.3727 12.7298Z" fill="#272636"/>
</svg>
